<?xml version="1.0" encoding="iso-8859-1"?>
<!-- Uploaded to: SVG Repo, www.svgrepo.com, Generator: SVG Repo Mixer Tools -->
<svg height="800px" width="800px" version="1.1" id="Layer_1" xmlns="http://www.w3.org/2000/svg" xmlns:xlink="http://www.w3.org/1999/xlink" 
	 viewBox="0 0 512.853 512.853" xml:space="preserve">
<g>
	<path style="fill:#FFE100;" d="M463.785,160.427C462.079,142.507,447.572,128,429.652,128h-18.773
		c15.36,0,29.013,13.653,30.72,32.427l24.747,305.493c0.853,20.48-12.8,37.547-29.867,37.547h21.333
		c19.627,0,34.987-17.067,33.28-37.547L463.785,160.427z"/>
	<path style="fill:#FFE100;" d="M342.612,8.533h-17.067c14.507,0,25.6,16.213,25.6,36.693V128h25.6V45.227
		C376.745,24.747,361.385,8.533,342.612,8.533"/>
</g>
<path style="fill:#FFFFFF;" d="M59.305,465.92l24.747-305.493C85.759,142.507,98.559,128,114.772,128H95.999
	c-17.92,0-32.427,13.653-34.133,32.427L33.705,465.92c-1.707,20.48,13.653,37.547,33.28,37.547h21.333
	C71.252,503.467,57.599,486.4,59.305,465.92"/>
<path style="fill:#FFE100;" d="M411.732,503.467H85.759c-17.067,0-30.72-17.067-29.013-37.547l24.747-305.493
	c0-18.773,13.653-32.427,29.013-32.427h275.627c15.36,0,29.013,13.653,30.72,32.427l24.747,305.493
	C443.305,486.4,429.652,503.467,411.732,503.467"/>
<path style="fill:#FFA800;" d="M438.185,160.427C436.479,142.507,421.972,128,404.052,128h-18.773
	c15.36,0,29.013,13.653,30.72,32.427l24.747,305.493c0.853,20.48-12.8,37.547-29.867,37.547h21.333
	c19.627,0,34.987-17.067,33.28-37.547L438.185,160.427z"/>
<path style="fill:#FFE100;" d="M184.745,128V63.147c0-10.24,5.973-20.48,12.8-20.48h102.4c6.827,0,17.067,10.24,17.067,20.48V128
	h8.533V45.227c0-20.48-11.947-36.693-25.6-36.693h-102.4c-14.507,0-25.6,16.213-25.6,36.693V128H184.745z"/>
<path style="fill:#FFFFFF;" d="M197.545,8.533h-17.067c-18.773,0-34.133,16.213-34.133,36.693V128h25.6V45.227
	C171.945,24.747,183.039,8.533,197.545,8.533"/>
<path style="fill:#FFA800;" d="M317.012,8.533h-17.067c14.507,0,25.6,16.213,25.6,36.693V128h25.6V45.227
	C351.145,24.747,335.785,8.533,317.012,8.533"/>
<path d="M433.919,512H171.945c-5.12,0-8.533-3.413-8.533-8.533c0-5.12,3.413-8.533,8.533-8.533h261.973
	c6.827,0,13.653-2.56,17.92-8.533c5.12-5.12,7.68-12.8,6.827-20.48l-27.307-305.493c-0.853-13.653-12.8-24.747-25.6-24.747H92.585
	c-13.653,0-24.747,10.24-25.6,24.747l-28.16,306.347c-0.853,7.68,1.707,14.507,6.827,20.48c5.12,5.12,11.093,8.533,17.92,8.533
	h40.107c5.12,0,8.533,3.413,8.533,8.533c0,5.12-3.413,8.533-8.533,8.533H63.572c-11.947,0-23.04-5.12-30.72-13.653
	c-8.533-8.533-11.947-21.333-11.093-33.28l27.307-305.493c2.56-23.893,21.333-40.96,43.52-40.96h312.32
	c22.187,0,40.96,17.067,42.667,40.107l27.307,305.493c0.853,11.947-2.56,23.893-11.093,33.28
	C456.105,506.88,445.012,512,433.919,512z"/>
<path d="M146.345,503.467c0-5.12-3.413-8.533-8.533-8.533c-5.12,0-8.533,3.413-8.533,8.533c0,5.12,3.413,8.533,8.533,8.533
	C142.932,512,146.345,508.587,146.345,503.467"/>
<path d="M351.145,133.973h-34.133c-5.12,0-8.533-3.413-8.533-8.533V63.147c0-3.413-0.853-5.973-3.413-8.533
	c-0.853-0.853-2.56-3.413-5.12-3.413l0,0h-102.4c-4.267,0-8.533,5.973-8.533,11.947v62.293c0,5.12-3.413,8.533-8.533,8.533h-34.133
	c-5.12,0-8.533-3.413-8.533-8.533V45.227C137.812,20.48,156.585,0,180.479,0h136.533c23.893,0,42.667,20.48,42.667,45.227v80.213
	C359.679,130.56,355.412,133.973,351.145,133.973z M325.545,116.907h17.067v-71.68c0-15.36-11.947-28.16-25.6-28.16H180.479
	c-14.507,0-25.6,12.8-25.6,28.16v71.68h17.067v-53.76c0-13.653,10.24-29.013,25.6-29.013h102.4l0,0
	c6.827,0,13.653,3.413,18.773,9.387c4.267,5.973,6.827,12.8,6.827,19.627V116.907z"/>
<path d="M137.812,477.867H30.292c-5.12,0-8.533-3.413-8.533-8.533c0-5.12,3.413-8.533,8.533-8.533h107.52
	c5.12,0,8.533,3.413,8.533,8.533C146.345,474.453,142.079,477.867,137.812,477.867z"/>
<path d="M120.745,443.733H32.852c-5.12,0-8.533-3.413-8.533-8.533c0-5.12,3.413-8.533,8.533-8.533h87.893
	c5.12,0,8.533,3.413,8.533,8.533C129.279,440.32,125.012,443.733,120.745,443.733z"/>
<path d="M103.679,409.6H36.265c-5.12,0-8.533-3.413-8.533-8.533s3.413-8.533,8.533-8.533h67.413c5.12,0,8.533,3.413,8.533,8.533
	S107.945,409.6,103.679,409.6z"/>
<path d="M464.639,477.867h-107.52c-5.12,0-8.533-3.413-8.533-8.533c0-5.12,3.413-8.533,8.533-8.533h107.52
	c5.12,0,8.533,3.413,8.533,8.533C473.172,474.453,468.905,477.867,464.639,477.867z"/>
<path d="M462.932,443.733h-87.04c-5.12,0-8.533-3.413-8.533-8.533c0-5.12,3.413-8.533,8.533-8.533h87.04
	c5.12,0,8.533,3.413,8.533,8.533C471.465,440.32,468.052,443.733,462.932,443.733z"/>
<path d="M459.519,409.6h-67.413c-5.12,0-8.533-3.413-8.533-8.533s3.413-8.533,8.533-8.533h67.413c5.12,0,8.533,3.413,8.533,8.533
	S463.785,409.6,459.519,409.6z"/>
<path d="M439.039,170.667h-80.213c-5.12,0-8.533-3.413-8.533-8.533c0-5.12,3.413-8.533,8.533-8.533h80.213
	c5.12,0,8.533,3.413,8.533,8.533C447.572,167.253,443.305,170.667,439.039,170.667z"/>
<path d="M442.452,204.8h-65.707c-5.12,0-8.533-3.413-8.533-8.533c0-5.12,3.413-8.533,8.533-8.533h65.707
	c5.12,0,8.533,3.413,8.533,8.533C450.985,201.387,447.572,204.8,442.452,204.8z"/>
<path d="M445.012,238.933h-51.2c-5.12,0-8.533-3.413-8.533-8.533c0-5.12,3.413-8.533,8.533-8.533h51.2
	c5.12,0,8.533,3.413,8.533,8.533C453.545,235.52,449.279,238.933,445.012,238.933z"/>
<path d="M137.812,170.667H57.599c-5.12,0-8.533-3.413-8.533-8.533c0-5.12,3.413-8.533,8.533-8.533h80.213
	c5.12,0,8.533,3.413,8.533,8.533C146.345,167.253,142.079,170.667,137.812,170.667z"/>
<path d="M120.745,204.8H55.039c-5.12,0-8.533-3.413-8.533-8.533c0-5.12,3.413-8.533,8.533-8.533h65.707
	c5.12,0,8.533,3.413,8.533,8.533C129.279,201.387,125.012,204.8,120.745,204.8z"/>
<path d="M103.679,238.933h-51.2c-5.12,0-8.533-3.413-8.533-8.533c0-5.12,3.413-8.533,8.533-8.533h51.2
	c5.12,0,8.533,3.413,8.533,8.533C112.212,235.52,107.945,238.933,103.679,238.933z"/>
</svg>